<?xml version="1.0" encoding="UTF-8" standalone="no"?><svg xmlns="http://www.w3.org/2000/svg" viewBox="0 0 64 64"><title>asm</title><g id="asm"><g id="M-4" data-name="M"><path d="M52 14v5h10l-10-7v2z"/><path d="M17 45h30v5H17z"/><path d="M47 50H17v-5h-5v16h40V45h-5zm-23 6zm-3-3z"/><path d="M12 14v-2L2 19h10v-5z"/><path d="M12 19h5v-5h30v5h5V3H12v16zM40 8zm3 3z"/><path d="M17 14h30v5H17z"/><path d="M47 19H2v26h60V19H47zM25 32h-8v-6a2 2 0 0 1 2-2h4a2 2 0 0 1 2 2zm5 0h4a2 2 0 0 1 2 2v4a2 2 0 0 1-2 2 2 2 0 0 0 2-2v-4a2 2 0 0 0-2-2h-4a2 2 0 0 1-2-2v-4a2 2 0 0 1 2-2 2 2 0 0 0-2 2v4a2 2 0 0 0 2 2zm17 8V24l-4 8-4-8 4 8 4-8z"/><path d="M23 24h-4a2 2 0 0 0-2 2v6h8v-6a2 2 0 0 0-2-2z"/><path fill="#fff" d="M21 10h22v2H21z"/><path fill="#fff" d="M24 7h16v2H24z"/><path fill="#fff" d="M21 52h22v2H21z"/><path fill="#fff" d="M24 55h16v2H24z"/><path d="M62.983 18.916a.966.966 0 0 0-.04-.2.945.945 0 0 0-.067-.175 1.025 1.025 0 0 0-.1-.153.948.948 0 0 0-.142-.148c-.022-.019-.034-.045-.058-.061L53 11.479V3a1 1 0 0 0-1-1H12a1 1 0 0 0-1 1v8.479l-9.573 6.7c-.024.016-.036.042-.058.061a.948.948 0 0 0-.142.148 1.025 1.025 0 0 0-.1.153.945.945 0 0 0-.067.175.966.966 0 0 0-.04.2A.781.781 0 0 0 1 19v26a1 1 0 0 0 1 1h9v15a1 1 0 0 0 1 1h40a1 1 0 0 0 1-1V46h9a1 1 0 0 0 1-1V19a.781.781 0 0 0-.017-.084zM58.828 18H53v-4.079zM51 4v14h-3v-4a1 1 0 0 0-1-1H17a1 1 0 0 0-1 1v4h-3V4zM18 18v-3h28v3zm-7 0H5.172L11 13.921zm40 42H13V46h3v4a1 1 0 0 0 1 1h30a1 1 0 0 0 1-1v-4h3zm-5-14v3H18v-3zm15-2H3V20h58z" fill="#fff"/><path d="M23 23h-4a3 3 0 0 0-3 3v14a1 1 0 0 0 2 0v-7h6v7a1 1 0 0 0 2 0V26a3 3 0 0 0-3-3zm-5 8v-5a1 1 0 0 1 1-1h4a1 1 0 0 1 1 1v5z" fill="#fff"/><path d="M30 25h6a1 1 0 0 0 0-2h-6a3 3 0 0 0-3 3v4a3 3 0 0 0 3 3h4a1 1 0 0 1 1 1v4a1 1 0 0 1-1 1h-6a1 1 0 0 0 0 2h6a3 3 0 0 0 3-3v-4a3 3 0 0 0-3-3h-4a1 1 0 0 1-1-1v-4a1 1 0 0 1 1-1z" fill="#fff"/><path d="M47.23 23.026a1.006 1.006 0 0 0-1.125.527L43 29.764l-3.1-6.211A1 1 0 0 0 38 24v16a1 1 0 0 0 2 0V28.236l2.1 4.211a1.042 1.042 0 0 0 1.79 0L46 28.236V40a1 1 0 0 0 2 0V24a1 1 0 0 0-.77-.974z" fill="#fff"/></g></g><metadata><rdf:RDF xmlns:rdf="http://www.w3.org/1999/02/22-rdf-syntax-ns#" xmlns:rdfs="http://www.w3.org/2000/01/rdf-schema#" xmlns:dc="http://purl.org/dc/elements/1.1/"><rdf:Description about="https://iconscout.com/legal#licenses" dc:title="asm" dc:description="asm" dc:publisher="Iconscout" dc:date="2018-07-11" dc:format="image/svg+xml" dc:language="en"><dc:creator><rdf:Bag><rdf:li>Phonlaphat Thongsriphong</rdf:li></rdf:Bag></dc:creator></rdf:Description></rdf:RDF></metadata></svg>