<?xml version="1.0" encoding="iso-8859-1"?>
<!-- Generator: Adobe Illustrator 18.0.0, SVG Export Plug-In . SVG Version: 6.00 Build 0)  -->
<!DOCTYPE svg PUBLIC "-//W3C//DTD SVG 1.1//EN" "http://www.w3.org/Graphics/SVG/1.1/DTD/svg11.dtd">
<svg version="1.1" id="Capa_1" xmlns="http://www.w3.org/2000/svg" xmlns:xlink="http://www.w3.org/1999/xlink" x="0px" y="0px"
	 viewBox="0 0 212.973 212.973" style="enable-background:new 0 0 212.973 212.973;" xml:space="preserve">
<g>
	<path d="M119.732,103.116c-3.707-1.85-8.211-0.342-10.06,3.364L89.78,146.367c-1.849,3.707-0.342,8.211,3.364,10.059
		c1.075,0.536,2.217,0.79,3.342,0.79c2.754,0,5.405-1.523,6.718-4.154l19.893-39.887
		C124.945,109.469,123.438,104.965,119.732,103.116z"/>
	<path d="M171.836,48.966c1.98,0,3.91-0.8,5.311-2.199c1.399-1.4,2.199-3.33,2.199-5.301c0-1.979-0.8-3.91-2.199-5.31
		c-1.4-1.39-3.33-2.19-5.311-2.19c-1.97,0-3.899,0.801-5.3,2.19c-1.39,1.399-2.19,3.33-2.19,5.31c0,1.971,0.801,3.9,2.19,5.301
		C167.936,48.166,169.866,48.966,171.836,48.966z"/>
	<path d="M144.846,48.966c1.971,0,3.9-0.8,5.301-2.199c1.399-1.4,2.199-3.33,2.199-5.301c0-1.979-0.8-3.91-2.199-5.31
		c-1.4-1.39-3.33-2.19-5.301-2.19c-1.98,0-3.909,0.801-5.31,2.19c-1.39,1.399-2.19,3.33-2.19,5.31c0,1.971,0.801,3.91,2.19,5.301
		C140.936,48.166,142.866,48.966,144.846,48.966z"/>
	<path d="M117.846,48.966c1.971,0,3.9-0.8,5.301-2.199c1.39-1.4,2.199-3.33,2.199-5.301c0-1.979-0.81-3.91-2.199-5.31
		c-1.4-1.39-3.33-2.19-5.301-2.19c-1.979,0-3.909,0.801-5.31,2.19c-1.39,1.399-2.19,3.33-2.19,5.31c0,1.971,0.801,3.91,2.19,5.301
		C113.937,48.166,115.866,48.966,117.846,48.966z"/>
	<path d="M205.473,10.678H7.5c-4.143,0-7.5,3.357-7.5,7.5v176.617c0,4.143,3.357,7.5,7.5,7.5h197.973c4.143,0,7.5-3.357,7.5-7.5
		V18.178C212.973,14.035,209.615,10.678,205.473,10.678z M197.973,25.678v31.57H15v-31.57H197.973z M15,187.295V72.248h182.973
		v115.047H15z"/>
	<path d="M79.963,105.087c-2.93-2.928-7.678-2.928-10.607,0l-19.719,19.719c-1.406,1.407-2.196,3.315-2.196,5.305
		c0,1.989,0.791,3.896,2.197,5.303l19.641,19.635c1.465,1.465,3.384,2.196,5.303,2.196c1.92,0,3.84-0.732,5.304-2.197
		c2.929-2.93,2.928-7.679-0.001-10.606l-14.336-14.332l14.415-14.414C82.892,112.765,82.892,108.017,79.963,105.087z"/>
	<path d="M143.732,105.087c-2.93-2.928-7.677-2.929-10.607,0.001c-2.929,2.929-2.929,7.678,0.001,10.606l14.334,14.332
		l-14.415,14.415c-2.929,2.929-2.929,7.678,0.001,10.606c1.464,1.464,3.384,2.196,5.303,2.196c1.919,0,3.839-0.732,5.304-2.197
		l19.718-19.719c1.406-1.406,2.196-3.313,2.196-5.303c0-1.989-0.79-3.898-2.197-5.304L143.732,105.087z"/>
</g>
<g>
</g>
<g>
</g>
<g>
</g>
<g>
</g>
<g>
</g>
<g>
</g>
<g>
</g>
<g>
</g>
<g>
</g>
<g>
</g>
<g>
</g>
<g>
</g>
<g>
</g>
<g>
</g>
<g>
</g>
</svg>
