<svg id="Layer_3" enable-background="new 0 0 64 64" height="512" viewBox="0 0 64 64" width="512" xmlns="http://www.w3.org/2000/svg"><g><path d="m62 63c.552 0 1-.447 1-1v-7c0-.098-.014-.194-.042-.287l-3-10c-.08-.265-.264-.484-.511-.607l-5.637-2.818-6.866-19.618c-.14-.401-.519-.67-.944-.67h-4v-6h11c.404 0 .769-.244.924-.617.155-.374.069-.804-.217-1.09l-3.293-3.293 3.293-3.293c.286-.286.372-.716.217-1.09-.155-.373-.52-.617-.924-.617h-12c-.552 0-1 .448-1 1v15h-5c-.469 0-.875.326-.976.783l-3.317 14.925-1.707-4.878v-14.416l6.707-6.707c.391-.391.391-1.023 0-1.414l-3-3c-.391-.391-1.023-.391-1.414 0l-5 5 1.414 1.414 4.293-4.293 1.586 1.586-6.293 6.293c-.188.187-.293.442-.293.707v2h-6v-2c0-.265-.105-.52-.293-.707l-6.293-6.293 1.586-1.586 4.293 4.293 1.414-1.414-5-5c-.391-.391-1.023-.391-1.414 0l-3 3c-.391.391-.391 1.023 0 1.414l6.707 6.707v14.35l-2.618 5.236h-4.382c-.323 0-.626.156-.814.419l-10 14c-.121.169-.186.373-.186.581v10c0 .553.448 1 1 1zm-20-56h8.586l-2.293 2.293c-.391.391-.391 1.023 0 1.414l2.293 2.293h-8.586zm-15 14v10h-2v-8h-2v8h-2v-10zm-24 40v-8.68l9.515-13.32h3.485v1.586l-2.707 2.707 1.414 1.414 1.293-1.293v4.172l-3.414 3.414h-2.586v2h3c.265 0 .52-.105.707-.293l3.293-3.293 2.293 2.293 1.414-1.414-2.707-2.707v-6.586-2.764l2.618-5.236h6.672l6.766 19.33c.107.307.357.542.669.632l6.717 1.919 5.354 6.119zm58 0h-11.547l-6.701-7.658c-.126-.146-.292-.25-.478-.304l-6.502-1.857-3.812-10.893 3.842-17.288h9.488l1.75 5h-2.04c-.265 0-.52.105-.707.293l-3.707 3.707h-2.586v2h3c.265 0 .52-.105.707-.293l1.293-1.293 2.293 2.293 1.414-1.414-2.293-2.293 1-1h2.326l4.316 12.33c.086.246.264.448.497.564l5.614 2.807 2.833 9.445z"/><path d="m24 11c2.206 0 4-1.794 4-4v-2c0-2.206-1.794-4-4-4s-4 1.794-4 4v2c0 2.206 1.794 4 4 4zm-2-6c0-1.103.897-2 2-2s2 .897 2 2v2c0 1.103-.897 2-2 2s-2-.897-2-2z"/><path d="m9.5 15.379h2v4.243h-2z" transform="matrix(.707 -.707 .707 .707 -9.299 12.55)"/><path d="m8.379 25.5h4.243v2h-4.243z" transform="matrix(.707 -.707 .707 .707 -15.663 15.186)"/><path d="m7 21h4v2h-4z"/></g></svg>